HIERARCHY
ROOT ui
{
	 OFFSET 0 0 0
	 CHANNELS 3 XPosition YPosition Z Position
	 EndSite
	 {
	 OFFSET 0 -1 0
	 }
}
ROOT li
{
	 OFFSET 0 0 0
	 CHANNELS 3 XPosition YPosition Z Position
	 EndSite
	 {
	 OFFSET 0 -1 0
	 }
}
ROOT ul
{
	 OFFSET 0 0 0
	 CHANNELS 3 XPosition YPosition Z Position
	 EndSite
	 {
	 OFFSET 0 -1 0
	 }
}
ROOT ll
{
	 OFFSET 0 0 0
	 CHANNELS 3 XPosition YPosition Z Position
	 EndSite
	 {
	 OFFSET 0 -1 0
	 }
}
ROOT tt
{
	 OFFSET 0 0 0
	 CHANNELS 3 XPosition YPosition Z Position
	 EndSite
	 {
	 OFFSET 0 -1 0
	 }
}
ROOT tb
{
	 OFFSET 0 0 0
	 CHANNELS 3 XPosition YPosition Z Position
	 EndSite
	 {
	 OFFSET 0 -1 0
	 }
}
ROOT td
{
	 OFFSET 0 0 0
	 CHANNELS 3 XPosition YPosition Z Position
	 EndSite
	 {
	 OFFSET 0 -1 0
	 }
}
ROOT v
{
	 OFFSET 0 0 0
	 CHANNELS 3 XPosition YPosition Z Position
	 EndSite
	 {
	 OFFSET 0 -1 0
	 }
}
ROOT bn
{
	 OFFSET 0 0 0
	 CHANNELS 3 XPosition YPosition Z Position
	 EndSite
	 {
	 OFFSET 0 -1 0
	 }
}
MOTION
Frames: 13
Frame Time: 0.002
0.01365151309967041	-0.0020716269016265868	0		0.44048214721679685	-2.302482421875	0		-1.1392225341796876	0.015089244842529296	0		-0.9243487548828125	-2.220790283203125	0		1.51659912109375	-0.49911630249023436	0		3.170883056640625	-0.07454862213134765	0		4.5502685546875	0.05754693603515625	0		5.56067333984375	0.1945546875	0		-0.3838319702148438	5.8693447265625	0		
-0.07178981018066406	0.0075235462188720705	0		0.40713385009765624	-2.292734130859375	0		-1.1398751220703125	0.011234722137451171	0		-0.8889747924804687	-2.228233642578125	0		1.513915771484375	-0.5058407287597656	0		3.173001220703125	-0.09229431915283202	0		4.55571337890625	0.05979888153076172	0		5.55375732421875	0.18337001037597656	0		-0.380631591796875	5.86945068359375	0		
-0.046398796081542966	0.0032692921161651613	0		0.44446090698242186	-2.30616748046875	0		-1.140464111328125	0.008370274543762208	0		-0.92340869140625	-2.226526611328125	0		1.517395263671875	-0.505671875	0		3.17954736328125	-0.08711333465576172	0		4.55403955078125	0.05216604232788086	0		5.55623046875	0.18391825866699218	0		-0.3773919982910156	5.86954833984375	0		
-0.06794985961914063	0.0037887508869171144	0		0.3960843811035156	-2.300184326171875	0		-1.128904296875	0.01530224609375	0		-0.8710331420898437	-2.2362607421875	0		1.523909423828125	-0.50255517578125	0		3.184781494140625	-0.0999143829345703	0		4.56748193359375	0.05228373718261719	0		5.55450732421875	0.1984761962890625	0		-0.3732039794921875	5.8676259765625	0		
0.010405314445495606	0.001660354971885681	0		0.45453009033203123	-2.3019658203125	0		-1.12552294921875	0.015368355751037597	0		-0.9363919067382812	-2.225050048828125	0		1.4962982177734374	-0.5028773193359375	0		3.18151416015625	-0.07857143402099609	0		4.57396044921875	0.058516746520996095	0		5.56404248046875	0.19700961303710937	0		-0.3568663024902344	5.87850537109375	0		
-0.051125267028808596	0.013839749336242676	0		0.4319486083984375	-2.298409423828125	0		-1.1222435302734375	0.015438935279846192	0		-0.873037109375	-2.225958251953125	0		1.5336744384765626	-0.49826837158203124	0		3.19553271484375	-0.09451897430419921	0		4.57414013671875	0.05284976196289062	0		5.57280322265625	0.19730047607421874	0		-0.5012948303222656	5.85002392578125	0		
0.02666635513305664	-0.00827133083343506	0		0.458059814453125	-2.305652587890625	0		-1.1231627197265626	0.01158226203918457	0		-0.933884033203125	-2.229822021484375	0		1.533773681640625	-0.5020460205078126	0		3.211893798828125	-0.08150153350830078	0		4.57728466796875	0.053131603240966795	0		5.57505126953125	0.19784397888183594	0		-0.36404861450195314	5.867923828125	0		
-0.0551561164855957	0.0042418789863586425	0		0.42531021118164064	-2.293926025390625	0		-1.1201771240234375	0.011666598320007325	0		-0.870812744140625	-2.229712890625	0		1.533728271484375	-0.5048203735351563	0		3.192721923828125	-0.09090608215332031	0		4.5802685546875	0.053412986755371095	0		5.5771845703125	0.19838459777832032	0		-0.36126553344726564	5.86803466796875	0		
-0.016521827697753906	-0.006217254161834717	0		0.43804119873046876	-2.30294482421875	0		-1.1173751220703125	0.011758246421813966	0		-0.9279439697265625	-2.22963330078125	0		1.5055355224609375	-0.5051336669921875	0		3.198608642578125	-0.0857197494506836	0		4.58793798828125	0.04561483764648438	0		5.5791865234375	0.19892530822753907	0		-0.3576758728027344	5.86713525390625	0		
-0.03280294036865234	0.0012265830039978028	0		0.4437994384765625	-2.29784423828125	0		-1.106660400390625	0.018726259231567382	0		-0.848295654296875	-2.2317822265625	0		1.5260538330078126	-0.5112413330078125	0		3.216048583984375	-0.09572283172607422	0		4.58363720703125	0.05201338958740234	0		5.58691357421875	0.22346060180664062	0		-0.3401366882324219	5.87501416015625	0		
-0.012202375411987305	0.014074166297912598	0		0.47426043701171877	-2.298142578125	0		-1.1042694091796874	0.018834112167358398	0		-0.8926480102539063	-2.2199033203125	0		1.5535885009765624	-0.5034573364257813	0		3.201819580078125	-0.07220402526855468	0		4.59115673828125	0.06021992874145508	0		5.58275439453125	0.200018798828125	0		-0.3520765380859375	5.866375	0		
-0.04518313980102539	0.004793619155883789	0		0.47139593505859373	-2.304895263671875	0		-1.1102052001953124	0.012081148147583008	0		-0.860552001953125	-2.229266357421875	0		1.5468150634765625	-0.501113037109375	0		3.20270703125	-0.08993596649169922	0		4.5902353515625	0.054561840057373044	0		5.584310546875	0.20057270812988282	0		-0.3510642700195313	5.86753076171875	0		
-0.007384120941162109	-0.0056333909034729	0		0.473430419921875	-2.30472509765625	0		-1.1082396240234376	0.012204380989074707	0		-0.858519775390625	-2.229135498046875	0		1.5457476806640624	-0.5038617248535157	0		3.20775634765625	-0.084733642578125	0		4.59219970703125	0.054854721069335935	0		5.5834951171875	0.18910139465332032	0		-0.34927297973632815	5.8676767578125	0		
